<svg xmlns="http://www.w3.org/2000/svg" xmlns:xlink="http://www.w3.org/1999/xlink" viewBox="0 0 502 306.93"><defs><style>.cls-1{fill:url(#linear-gradient);}.cls-2{fill:url(#linear-gradient-2);}.cls-3{fill:url(#linear-gradient-3);}.cls-4{fill:url(#linear-gradient-4);}.cls-5{fill:url(#linear-gradient-5);}.cls-6{fill:url(#linear-gradient-6);}</style><linearGradient id="linear-gradient" x1="803.17" y1="-230.51" x2="-282.6" y2="505.63" gradientUnits="userSpaceOnUse"><stop offset="0" stop-color="#ff00a6"/><stop offset="0.54" stop-color="#00b4ec"/><stop offset="1" stop-color="#fffa00"/></linearGradient><linearGradient id="linear-gradient-2" x1="863.22" y1="-141.94" x2="-222.56" y2="594.2" xlink:href="#linear-gradient"/><linearGradient id="linear-gradient-3" x1="920.51" y1="-57.43" x2="-165.26" y2="678.71" xlink:href="#linear-gradient"/><linearGradient id="linear-gradient-4" x1="950.89" y1="-12.63" x2="-134.88" y2="723.51" xlink:href="#linear-gradient"/><linearGradient id="linear-gradient-5" x1="787.28" y1="-253.94" x2="-298.49" y2="482.2" xlink:href="#linear-gradient"/><linearGradient id="linear-gradient-6" x1="815.53" y1="-212.28" x2="-270.24" y2="523.87" xlink:href="#linear-gradient"/></defs><title>brunomacedo-logo</title><g id="objects"><path class="cls-1" d="M119.86,258.37a6.65,6.65,0,0,0-2.68-1.16,17,17,0,0,0-3.34-.3h-3.54V281a22.53,22.53,0,0,1-1,7.33,13.37,13.37,0,0,1-2.63,4.65,8.39,8.39,0,0,1-3.74,2.43,12.26,12.26,0,0,1-4.25.56,11.58,11.58,0,0,1-3.94-.86,7.69,7.69,0,0,1-3.19-2.58,13.55,13.55,0,0,1-2.12-4.86,32.9,32.9,0,0,1-.76-7.78V264.79a11.2,11.2,0,0,0-.61-4,5.31,5.31,0,0,0-1.77-2.43,6.66,6.66,0,0,0-2.68-1.16,17,17,0,0,0-3.34-.3H77.62a28.27,28.27,0,0,0-3.51-.81,21.31,21.31,0,0,0-5.56-.1,11.46,11.46,0,0,0-3.24.81,12.88,12.88,0,0,0-2.53,1.41,13.89,13.89,0,0,0-1.92,1.67q-.81.86-1.31,1.47a5.15,5.15,0,0,0-2.93-3.59,13.48,13.48,0,0,0-5.06-.86H48V273a23.49,23.49,0,0,0-1.26-4,22.55,22.55,0,0,0-5.31-7.78A19,19,0,0,0,34.12,257a21.52,21.52,0,0,0-8-1,14,14,0,0,0-4.5,1.06,35.08,35.08,0,0,0-3.39,1.67,22.3,22.3,0,0,0-2.93,2.23V246.89a11.16,11.16,0,0,0-.61-4,5.84,5.84,0,0,0-1.72-2.48,5.92,5.92,0,0,0-2.63-1.21,17,17,0,0,0-3.34-.3H3.33v41.55a29,29,0,0,0,2,11.33,21,21,0,0,0,5.16,7.53,19.68,19.68,0,0,0,7.28,4.2,27.13,27.13,0,0,0,16.68,0,19.69,19.69,0,0,0,7.28-4.2,21,21,0,0,0,5.16-7.53A22.79,22.79,0,0,0,48,288v8a11.16,11.16,0,0,0,.61,4,5.63,5.63,0,0,0,1.77,2.48,6.23,6.23,0,0,0,2.68,1.21,17,17,0,0,0,3.34.3H60V279.86q0-8.7,2.58-12.13a6.79,6.79,0,0,1,6.82-2.83q4.45.71,6.77-.2c.22-.08.41-.18.61-.27v16a28.46,28.46,0,0,0,2.07,11.43,22.63,22.63,0,0,0,5.31,7.73,18.94,18.94,0,0,0,7.33,4.25,21.55,21.55,0,0,0,8,1,16.87,16.87,0,0,0,4-.86,17.34,17.34,0,0,0,3.29-1.52,23.3,23.3,0,0,0,2.43-1.67l1.52-1.21a5.27,5.27,0,0,0,2.93,3.54,12.82,12.82,0,0,0,5.06.91h3.54V264.79a11.22,11.22,0,0,0-.61-4A5.32,5.32,0,0,0,119.86,258.37ZM36.5,281a24.72,24.72,0,0,1-1.26,7.18,14.36,14.36,0,0,1-2.63,4.7,8.68,8.68,0,0,1-3.49,2.48,9.55,9.55,0,0,1-3.84.61,9.38,9.38,0,0,1-3.74-1,8.7,8.7,0,0,1-3.18-2.83,14.63,14.63,0,0,1-2.12-5,25.34,25.34,0,0,1-.56-7.28,24.09,24.09,0,0,1,1.26-7.13,14.45,14.45,0,0,1,2.63-4.65,9,9,0,0,1,7.33-3.19A9.36,9.36,0,0,1,30.68,266a9,9,0,0,1,3.24,2.88,14,14,0,0,1,2.07,4.9A26.36,26.36,0,0,1,36.5,281Z"/><path class="cls-2" d="M356,295.38a30.88,30.88,0,0,0-5.31.71,36.32,36.32,0,0,1-7.33.66,9.54,9.54,0,0,1-7.94-3.84q-3-3.84-3-12.44t3-12.44a9.58,9.58,0,0,1,7.88-3.84,36.47,36.47,0,0,1,7.33.66,30.71,30.71,0,0,0,5.31.71,3.94,3.94,0,0,0,3.24-1.21q1.11-1.26,1.11-5.21-2.22-.81-5-1.52-2.33-.61-5.51-1.11a45.21,45.21,0,0,0-7-.51,27.14,27.14,0,0,0-8.34,1.31,19.7,19.7,0,0,0-7.28,4.2,21,21,0,0,0-5.16,7.58c-.17.41-.3.86-.45,1.29a18.61,18.61,0,0,0-1.82-6.35,14,14,0,0,0-5.16-5.77,14.9,14.9,0,0,0-6.47-2q-3.44-.25-6.07-.25a46.2,46.2,0,0,0-7.08.51q-3.24.51-5.56,1.11-2.73.71-5,1.52,0,3.94,1.11,5.21a4,4,0,0,0,3.24,1.21,30.65,30.65,0,0,0,5.31-.71,37.08,37.08,0,0,1,7.43-.66q4.45,0,6.42,1.82a8.56,8.56,0,0,1,2.58,4,13.67,13.67,0,0,1,.2,5.76c-9.44-1.48-16.86-1.2-22.22.86a13.63,13.63,0,0,0-5.94,4.34v-.55A33.35,33.35,0,0,0,280.9,269a22,22,0,0,0-4.64-7.78,16.46,16.46,0,0,0-6.62-4.25,19.19,19.19,0,0,0-7.68-1,12.93,12.93,0,0,0-4.7,1.21,17.66,17.66,0,0,0-3.59,2.28,15.94,15.94,0,0,0-2.58,2.68,29.06,29.06,0,0,0-1.67,2.43,16.94,16.94,0,0,0-7.48-6.93,18.88,18.88,0,0,0-9.5-1.67,11.65,11.65,0,0,0-3.69.91,13.53,13.53,0,0,0-2.63,1.52,10.71,10.71,0,0,0-1.77,1.67c-.47.58-.84,1-1.11,1.26-.54-1.82-1.52-3.4-2.93-4a13.11,13.11,0,0,0-5-1.24h-3.11V276a24.12,24.12,0,0,0-1.39-5.05,24.58,24.58,0,0,0-4.9-7.73,23.75,23.75,0,0,0-7.18-5.21,20.49,20.49,0,0,0-8.9-2,22.11,22.11,0,0,0-16.58,7.18,24.24,24.24,0,0,0-4.55,7.73c-.24.66-.44,1.33-.63,2a23.65,23.65,0,0,0-1.24-3.93,22.58,22.58,0,0,0-5.31-7.78,19,19,0,0,0-7.33-4.25,21.51,21.51,0,0,0-8-1,15.4,15.4,0,0,0-4,.91,23.19,23.19,0,0,0-3.29,1.52,18.93,18.93,0,0,0-2.48,1.67q-1.06.86-1.47,1.26a5.15,5.15,0,0,0-2.93-3.59,13.48,13.48,0,0,0-5.06-.86h-3.54V296a11.19,11.19,0,0,0,.6,4,5.63,5.63,0,0,0,1.77,2.48,6.24,6.24,0,0,0,2.68,1.21,17,17,0,0,0,3.34.3h3.54V279.86a22.61,22.61,0,0,1,1-7.28,12.78,12.78,0,0,1,2.63-4.65,9,9,0,0,1,3.74-2.43,11.71,11.71,0,0,1,8.19.25,7.66,7.66,0,0,1,3.18,2.58,13.52,13.52,0,0,1,2.13,4.9A33.13,33.13,0,0,1,157,281V296a11.21,11.21,0,0,0,.61,4,5.66,5.66,0,0,0,1.77,2.48,6.23,6.23,0,0,0,2.68,1.21,17,17,0,0,0,3.34.3h3.54V290a24.56,24.56,0,0,0,4.85,7.62,23.57,23.57,0,0,0,7.23,5.26,20.59,20.59,0,0,0,8.85,1.92,22.58,22.58,0,0,0,9.4-1.92,20.9,20.9,0,0,0,7.18-5.26,24.31,24.31,0,0,0,4.55-7.74,25.92,25.92,0,0,0,1.24-4.76V296a11.7,11.7,0,0,0,.39,4,5.65,5.65,0,0,0,1.61,2.48,5.43,5.43,0,0,0,2.58,1,17.26,17.26,0,0,0,3.28.09h4.38V279.86a37,37,0,0,1,.29-7.28,12.38,12.38,0,0,1,1.74-4.65,6.71,6.71,0,0,1,2.94-2.43,9.29,9.29,0,0,1,3.95-.61,8.56,8.56,0,0,1,3.57.86,5.83,5.83,0,0,1,2.42,2.58,15.51,15.51,0,0,1,1.45,4.9,54,54,0,0,1,.49,7.73V296a11.27,11.27,0,0,0,.56,4,5.61,5.61,0,0,0,1.75,2.48,5.94,5.94,0,0,0,2.67,1,17.74,17.74,0,0,0,3.33.09h3.93V279.86a32.93,32.93,0,0,1,.51-7.28,13,13,0,0,1,1.88-4.65,6.81,6.81,0,0,1,3-2.43,9.88,9.88,0,0,1,7.5.25,5.73,5.73,0,0,1,2.47,2.58,16,16,0,0,1,1.23,4.9,58.46,58.46,0,0,1,.27,7.73V296a10.9,10.9,0,0,0,.79,4,5.8,5.8,0,0,0,1.86,2.48,6.15,6.15,0,0,0,2.72,1,18.35,18.35,0,0,0,3.38.09h3.49v-6.12c1.53,1.41,2.1,2.61,3.47,3.62a17.92,17.92,0,0,0,6.28,2.93,26.34,26.34,0,0,0,7.29.81,15.44,15.44,0,0,0,7.18-1.77,15.68,15.68,0,0,0,3.84-3,4.82,4.82,0,0,0,2.93,2.92,12.92,12.92,0,0,0,4.75.59h4V292a20.6,20.6,0,0,0,4.93,7.32,19.45,19.45,0,0,0,7.22,4.2,27,27,0,0,0,8.31,1.31,50.19,50.19,0,0,0,12.51-1.52,38.42,38.42,0,0,0,5-1.62q0-3.84-1.11-5.1A4,4,0,0,0,356,295.38ZM200.29,281.27a25.48,25.48,0,0,1-1.87,7.84,13.49,13.49,0,0,1-3.13,4.55,8.61,8.61,0,0,1-3.59,2,8.32,8.32,0,0,1-6.22-.51,8.33,8.33,0,0,1-3.24-2.63,14.07,14.07,0,0,1-2.33-5.06,22.47,22.47,0,0,1-.35-8,22.92,22.92,0,0,1,1.82-7.84,13.86,13.86,0,0,1,3.13-4.5,8.46,8.46,0,0,1,3.59-2,10.47,10.47,0,0,1,3.18-.35,9.44,9.44,0,0,1,3,.86,8.62,8.62,0,0,1,3.18,2.58,13.59,13.59,0,0,1,2.33,5A23.86,23.86,0,0,1,200.29,281.27ZM310,289.51a9.16,9.16,0,0,1-2.43,3.89,8.76,8.76,0,0,1-3.59,2,15.58,15.58,0,0,1-4.15.56,17.2,17.2,0,0,1-3.29-.31,7.51,7.51,0,0,1-2.73-1.06,5.17,5.17,0,0,1-1.82-2.07,7.42,7.42,0,0,1-.66-3.34,6.27,6.27,0,0,1,.81-3.33,7.06,7.06,0,0,1,2.07-2.17,8.31,8.31,0,0,1,2.73-1.22,17.87,17.87,0,0,1,2.88-.45,30.65,30.65,0,0,1,4.35.1c1.35.14,2.49.27,3.44.41a31.81,31.81,0,0,1,3.13.71A18.13,18.13,0,0,1,310,289.51Z"/><path class="cls-3" d="M485.78,270.91a24.59,24.59,0,0,0-4.9-7.73,23.71,23.71,0,0,0-7.18-5.21,20.48,20.48,0,0,0-8.9-2,22.09,22.09,0,0,0-9.4,2,23.33,23.33,0,0,0-7.44,5.21,40.8,40.8,0,0,0-4.61,7.25V246.89a11.85,11.85,0,0,0-.34-4,5.46,5.46,0,0,0-1.64-2.48,5.75,5.75,0,0,0-2.61-1,17.09,17.09,0,0,0-3.27-.1h-2.85v21.64a19.09,19.09,0,0,1-3.18-2.23,37.44,37.44,0,0,0-3.61-1.67A15.13,15.13,0,0,0,421.2,256a21.39,21.39,0,0,0-8,1,19.11,19.11,0,0,0-7.3,4.25,22.11,22.11,0,0,0-4.94,7,11.46,11.46,0,0,0-1.39-3.56,16,16,0,0,0-5-5.1,21.54,21.54,0,0,0-7-2.93,25.59,25.59,0,0,0-7.84-.61,33.92,33.92,0,0,0-8.34,1.67A20,20,0,0,0,359,269.24a28.25,28.25,0,0,0-2,11.22,29,29,0,0,0,2,11.33,21.06,21.06,0,0,0,5.16,7.53,19.7,19.7,0,0,0,7.28,4.2,27.15,27.15,0,0,0,8.34,1.31,63,63,0,0,0,8-.46,53.14,53.14,0,0,0,5.91-1.06,32.87,32.87,0,0,0,5-1.62q.1-3.33-1.16-4.55a5.87,5.87,0,0,0-3.69-1.42,29.86,29.86,0,0,0-5.86.2,66.39,66.39,0,0,1-7.69.4,10.16,10.16,0,0,1-7.08-2.83q-2.83-2.73-3.64-9a55,55,0,0,0,15.12,1.62,23.73,23.73,0,0,0,9.66-2.38,12.68,12.68,0,0,0,4.15-3.48c0,.06,0,.12,0,.19a25.08,25.08,0,0,0,1.77,9.45,25.5,25.5,0,0,0,4.8,7.74,23.57,23.57,0,0,0,7.23,5.26,20.81,20.81,0,0,0,8.95,1.92,25.24,25.24,0,0,0,9.15-1.62,19.7,19.7,0,0,0,7.18-4.7,21.46,21.46,0,0,0,4.65-7.63,25.36,25.36,0,0,0,.88-3.09c.22.72.46,1.43.74,2.13a24.5,24.5,0,0,0,4.9,7.74,23.53,23.53,0,0,0,7.23,5.26,20.59,20.59,0,0,0,8.85,1.92,22.57,22.57,0,0,0,9.4-1.92,20.88,20.88,0,0,0,7.18-5.26,24.29,24.29,0,0,0,4.55-7.74,27.17,27.17,0,0,0,1.62-9.45A25.41,25.41,0,0,0,485.78,270.91Zm-96.21.86a6.17,6.17,0,0,1-1.92,4,8.9,8.9,0,0,1-4.25,2,20.22,20.22,0,0,1-6.17.2,48.46,48.46,0,0,1-7.69-1.47q.81-6.37,3.64-9.25a10.25,10.25,0,0,1,7.08-3.08q5.06-.3,7.38,2.07A6.38,6.38,0,0,1,389.57,271.77Zm41.5,15.72a14.09,14.09,0,0,1-2.32,5.06,8.45,8.45,0,0,1-3.19,2.63,9.5,9.5,0,0,1-3,.86,10.44,10.44,0,0,1-3.19-.35,8.21,8.21,0,0,1-3.59-2,14.46,14.46,0,0,1-3.14-4.55,22.86,22.86,0,0,1-1.82-7.84,23.79,23.79,0,0,1,.45-8,13.57,13.57,0,0,1,2.32-5,8.61,8.61,0,0,1,3.19-2.58,9.44,9.44,0,0,1,3-.86,10.48,10.48,0,0,1,3.19.35,8.47,8.47,0,0,1,3.59,2,13.89,13.89,0,0,1,3.13,4.5,23,23,0,0,1,1.82,7.84A23.84,23.84,0,0,1,431.07,287.49Zm44.14-6.22a25.48,25.48,0,0,1-1.87,7.84,13.5,13.5,0,0,1-3.13,4.55,8.61,8.61,0,0,1-3.59,2,8.32,8.32,0,0,1-6.22-.51,8.31,8.31,0,0,1-3.24-2.63,14.12,14.12,0,0,1-2.33-5.06,22.46,22.46,0,0,1-.35-8,22.89,22.89,0,0,1,1.82-7.84,13.83,13.83,0,0,1,3.13-4.5,8.45,8.45,0,0,1,3.59-2,10.47,10.47,0,0,1,3.18-.35,9.47,9.47,0,0,1,3,.86,8.62,8.62,0,0,1,3.18,2.58,13.57,13.57,0,0,1,2.33,5A24,24,0,0,1,475.21,281.27Z"/><path class="cls-4" d="M496.9,293.81a5.94,5.94,0,0,0-4.3-1.72,5.87,5.87,0,0,0-5.86,5.86,5.92,5.92,0,0,0,1.72,4.3A5.57,5.57,0,0,0,492.6,304a6,6,0,0,0,6.07-6.07A5.57,5.57,0,0,0,496.9,293.81Z"/><path class="cls-5" d="M251,219.36a108.13,108.13,0,0,0,13.46-.84A52.63,52.63,0,0,1,251,214.24a61.1,61.1,0,0,1-18.82-13.76,64.94,64.94,0,0,1-12.67-20.36,67.49,67.49,0,0,1-4.67-25.22V59.15q0-16.18,8.67-23.05t25.22-6.87c-.18,1.07-.36,2.69-.53,4.85q-.28,3-.4,8.09t-.14,13.22v8.5q0,6.06-.13,12.81t-.13,12.41v7.28q11.73-6.21,27-6.2a53.81,53.81,0,0,1,23.35,5.13,61.25,61.25,0,0,1,18.82,13.75,66.23,66.23,0,0,1,12.94,20.49,67.31,67.31,0,0,1,4.67,25.36,72.48,72.48,0,0,1-4.27,24.95,67.89,67.89,0,0,1-4,8.91A108.8,108.8,0,0,0,358.7,110.7C358.7,50.69,310.47,2,251,2S143.3,50.69,143.3,110.7,191.52,219.36,251,219.36Z"/><path class="cls-6" d="M282.49,114.71a21.32,21.32,0,0,0-16.27,0,23.14,23.14,0,0,0-8.95,6.07q-4.27,4.45-7.2,12.68t-2.93,21.16q0,12.95,2.93,21.18t7.2,12.67a23.05,23.05,0,0,0,8.95,6.07,21.2,21.2,0,0,0,16.27,0,23,23,0,0,0,8.95-6.07q4.27-4.46,7.2-12.67t2.94-21.18q0-12.94-2.94-21.16t-7.2-12.68A23.08,23.08,0,0,0,282.49,114.71Z"/></g></svg>
